<svg width="249" height="408" viewBox="0 0 249 408" fill="none" xmlns="http://www.w3.org/2000/svg">
<g id="Group">
<g id="background">
<rect id="background_2" x="20" y="234" width="208" height="48" fill="#3300FF" fill-opacity="0.28"/>
</g>
<path id="Vector" d="M241.68 392.881V7.63983C241.68 3.70697 239.081 0.478258 235.759 0.115311C235.4 0.0453683 235.034 0 234.657 0H13.4986C9.88425 0 6.95382 3.38561 6.95382 7.56138C6.95382 7.57462 6.95546 7.58785 6.95546 7.60108C6.95546 7.61431 6.95382 7.62755 6.95382 7.64078V392.877H6.54478C2.93042 392.877 0 396.263 0 400.439C0 404.614 2.93042 408 6.54478 408H104.725H143.977H241.611C245.225 408 248.156 404.614 248.156 400.439C248.156 396.289 245.262 392.924 241.68 392.881ZM20.0434 15.1228H228.59V392.877H150.521V339.987C150.521 335.811 147.59 332.426 143.976 332.426H104.725C101.11 332.426 98.1798 335.811 98.1798 339.987V392.877H20.0434V15.1228ZM111.27 392.877V347.549H137.432V392.877H111.27Z" fill="black"/>
<path id="Vector_2" d="M78.5071 342.567H39.2443C35.629 342.567 32.6977 345.498 32.6977 349.114V375.061C32.6977 378.677 35.629 381.608 39.2443 381.608H78.5071C82.1225 381.608 85.0537 378.677 85.0537 375.061V349.114C85.0537 345.498 82.1225 342.567 78.5071 342.567ZM71.9604 368.515H45.791V355.661H71.9604V368.515Z" fill="black"/>
<path id="Vector_3" d="M170.177 381.609H209.44C213.056 381.609 215.987 378.678 215.987 375.062V349.114C215.987 345.499 213.056 342.568 209.44 342.568H170.177C166.562 342.568 163.631 345.499 163.631 349.114V375.062C163.631 378.678 166.562 381.609 170.177 381.609ZM176.724 355.66H202.893V368.515H176.724V355.66Z" fill="black"/>
<path id="Vector_4" d="M78.5071 290.398H39.2443C35.629 290.398 32.6977 293.33 32.6977 296.945V322.893C32.6977 326.508 35.629 329.439 39.2443 329.439H78.5071C82.1225 329.439 85.0537 326.508 85.0537 322.893V296.945C85.0537 293.33 82.1225 290.398 78.5071 290.398ZM71.9604 316.347H45.791V303.493H71.9604V316.347Z" fill="black"/>
<path id="Vector_5" d="M104.72 329.44H143.983C147.598 329.44 150.529 326.509 150.529 322.894V296.946C150.529 293.33 147.598 290.399 143.983 290.399H104.72C101.104 290.399 98.1732 293.33 98.1732 296.946V322.894C98.1732 326.509 101.104 329.44 104.72 329.44ZM111.267 303.492H137.436V316.346H111.267V303.492Z" fill="black"/>
<path id="Vector_6" d="M170.177 329.44H209.44C213.056 329.44 215.987 326.509 215.987 322.894V296.946C215.987 293.33 213.056 290.399 209.44 290.399H170.177C166.562 290.399 163.631 293.33 163.631 296.946V322.894C163.631 326.509 166.562 329.44 170.177 329.44ZM176.724 303.492H202.893V316.346H176.724V303.492Z" fill="black"/>
<path id="Vector_7" d="M78.5071 238.025H39.2443C35.629 238.025 32.6977 240.956 32.6977 244.572V270.519C32.6977 274.135 35.629 277.066 39.2443 277.066H78.5071C82.1225 277.066 85.0537 274.135 85.0537 270.519V244.572C85.0537 240.956 82.1225 238.025 78.5071 238.025ZM71.9604 263.974H45.791V251.119H71.9604V263.974Z" fill="black"/>
<path id="Vector_8" d="M104.72 277.067H143.983C147.598 277.067 150.529 274.136 150.529 270.52V244.573C150.529 240.957 147.598 238.026 143.983 238.026H104.72C101.104 238.026 98.1732 240.957 98.1732 244.573V270.52C98.1732 274.136 101.104 277.067 104.72 277.067ZM111.267 251.118H137.436V263.973H111.267V251.118Z" fill="black"/>
<path id="Vector_9" d="M170.177 277.067H209.44C213.056 277.067 215.987 274.136 215.987 270.52V244.573C215.987 240.957 213.056 238.026 209.44 238.026H170.177C166.562 238.026 163.631 240.957 163.631 244.573V270.52C163.631 274.136 166.562 277.067 170.177 277.067ZM176.724 251.118H202.893V263.973H176.724V251.118Z" fill="black"/>
<path id="Vector_10" d="M78.5071 185.857H39.2443C35.629 185.857 32.6977 188.788 32.6977 192.403V218.351C32.6977 221.966 35.629 224.897 39.2443 224.897H78.5071C82.1225 224.897 85.0537 221.966 85.0537 218.351V192.403C85.0537 188.788 82.1225 185.857 78.5071 185.857ZM71.9604 211.805H45.791V198.951H71.9604V211.805Z" fill="black"/>
<path id="Vector_11" d="M104.72 224.898H143.983C147.598 224.898 150.529 221.967 150.529 218.352V192.404C150.529 188.789 147.598 185.857 143.983 185.857H104.72C101.104 185.857 98.1732 188.789 98.1732 192.404V218.352C98.1732 221.967 101.104 224.898 104.72 224.898ZM111.267 198.95H137.436V211.804H111.267V198.95Z" fill="black"/>
<path id="Vector_12" d="M170.177 224.898H209.44C213.056 224.898 215.987 221.967 215.987 218.352V192.404C215.987 188.789 213.056 185.857 209.44 185.857H170.177C166.562 185.857 163.631 188.789 163.631 192.404V218.352C163.631 221.967 166.562 224.898 170.177 224.898ZM176.724 198.95H202.893V211.804H176.724V198.95Z" fill="black"/>
<path id="Vector_13" d="M78.5071 133.347H39.2443C35.629 133.347 32.6977 136.279 32.6977 139.894V165.842C32.6977 169.457 35.629 172.388 39.2443 172.388H78.5071C82.1225 172.388 85.0537 169.457 85.0537 165.842V139.894C85.0537 136.279 82.1225 133.347 78.5071 133.347ZM71.9604 159.295H45.791V146.441H71.9604V159.295Z" fill="black"/>
<path id="Vector_14" d="M104.72 172.388H143.983C147.598 172.388 150.529 169.457 150.529 165.842V139.894C150.529 136.279 147.598 133.347 143.983 133.347H104.72C101.104 133.347 98.1732 136.279 98.1732 139.894V165.842C98.1732 169.458 101.104 172.388 104.72 172.388ZM111.267 146.441H137.436V159.295H111.267V146.441Z" fill="black"/>
<path id="Vector_15" d="M170.177 172.388H209.44C213.056 172.388 215.987 169.457 215.987 165.842V139.894C215.987 136.279 213.056 133.347 209.44 133.347H170.177C166.562 133.347 163.631 136.279 163.631 139.894V165.842C163.631 169.458 166.562 172.388 170.177 172.388ZM176.724 146.441H202.893V159.295H176.724V146.441Z" fill="black"/>
<path id="Vector_16" d="M78.5071 81.1788H39.2443C35.629 81.1788 32.6977 84.1101 32.6977 87.7255V113.673C32.6977 117.289 35.629 120.22 39.2443 120.22H78.5071C82.1225 120.22 85.0537 117.289 85.0537 113.673V87.7255C85.0537 84.1101 82.1225 81.1788 78.5071 81.1788ZM71.9604 107.126H45.791V94.2721H71.9604V107.126Z" fill="black"/>
<path id="Vector_17" d="M104.72 120.22H143.983C147.598 120.22 150.529 117.289 150.529 113.673V87.7255C150.529 84.1101 147.598 81.1788 143.983 81.1788H104.72C101.104 81.1788 98.1732 84.1101 98.1732 87.7255V113.673C98.1732 117.289 101.104 120.22 104.72 120.22ZM111.267 94.2721H137.436V107.126H111.267V94.2721Z" fill="black"/>
<path id="Vector_18" d="M170.177 120.22H209.44C213.056 120.22 215.987 117.289 215.987 113.673V87.7255C215.987 84.1101 213.056 81.1788 209.44 81.1788H170.177C166.562 81.1788 163.631 84.1101 163.631 87.7255V113.673C163.631 117.289 166.562 120.22 170.177 120.22ZM176.724 94.2721H202.893V107.126H176.724V94.2721Z" fill="black"/>
<path id="Vector_19" d="M78.0431 29.1429H38.7804C35.165 29.1429 32.2338 32.0741 32.2338 35.6895V61.6372C32.2338 65.2526 35.165 68.1838 38.7804 68.1838H78.0431C81.6585 68.1838 84.5898 65.2526 84.5898 61.6372V35.6895C84.5898 32.0741 81.6585 29.1429 78.0431 29.1429ZM71.4965 55.0905H45.3271V42.2362H71.4965V55.0905Z" fill="black"/>
<path id="Vector_20" d="M104.256 68.1838H143.519C147.134 68.1838 150.065 65.2526 150.065 61.6372V35.6895C150.065 32.0741 147.134 29.1429 143.519 29.1429H104.256C100.641 29.1429 97.7093 32.0741 97.7093 35.6895V61.6372C97.7093 65.2526 100.641 68.1838 104.256 68.1838ZM110.803 42.2362H136.972V55.0905H110.803V42.2362Z" fill="black"/>
<path id="Vector_21" d="M169.713 68.1838H208.976C212.592 68.1838 215.523 65.2526 215.523 61.6372V35.6895C215.523 32.0741 212.592 29.1429 208.976 29.1429H169.713C166.098 29.1429 163.167 32.0741 163.167 35.6895V61.6372C163.167 65.2526 166.098 68.1838 169.713 68.1838ZM176.26 42.2362H202.43V55.0905H176.26V42.2362Z" fill="black"/>
</g>
</svg>
